<svg xmlns="http://www.w3.org/2000/svg" style="display: none;"><symbol id="square" viewBox="0 0 438.536 438.536"><title>square</title><path d="M414.41,24.123C398.333,8.042,378.963,0,356.315,0H82.228C59.58,0,40.21,8.042,24.126,24.123 C8.045,40.207,0.003,59.576,0.003,82.225v274.084c0,22.647,8.042,42.018,24.123,58.102c16.084,16.084,35.454,24.126,58.102,24.126 h274.084c22.648,0,42.018-8.042,58.095-24.126c16.084-16.084,24.126-35.454,24.126-58.102V82.225 C438.532,59.576,430.49,40.204,414.41,24.123z M373.155,225.548h-49.963V406.84h-74.802V225.548H210.99V163.02h37.401v-37.402 c0-26.838,6.283-47.107,18.843-60.813c12.559-13.706,33.304-20.555,62.242-20.555h49.963v62.526h-31.401 c-10.663,0-17.467,1.853-20.417,5.568c-2.949,3.711-4.428,10.23-4.428,19.558v31.119h56.534L373.155,225.548z"/></symbol><symbol id="github" viewBox="0 0 475.084 475.084"><title>github</title><path d="M436.244,146.752c5.14-15.422,7.713-31.409,7.713-47.967c0-22.08-4.859-42.828-14.564-62.242 c-20.362,0-38.349,3.715-53.961,11.136c-15.604,7.423-33.4,18.938-53.379,34.545c-25.122-6.09-51.777-9.135-79.941-9.135 c-30.837,0-60.245,3.333-88.223,9.994c-20.364-15.99-38.351-27.74-53.959-35.26c-15.608-7.52-33.689-11.279-54.247-11.279 c-9.707,19.414-14.56,40.163-14.56,62.242c0,16.751,2.568,32.93,7.708,48.535C12.942,177.587,0,215.272,0,260.383 c0,39.595,5.898,71.092,17.701,94.507c6.283,12.367,14.465,23.312,24.554,32.832c10.085,9.514,21.601,17.228,34.545,23.13 c12.946,5.896,25.981,10.801,39.116,14.699c13.134,3.9,27.646,6.758,43.54,8.559c15.893,1.816,29.93,3.004,42.111,3.579 c12.181,0.564,25.693,0.853,40.544,0.853c17.508,0,33.396-0.432,47.678-1.283c14.277-0.855,30.594-2.953,48.964-6.276 c18.367-3.333,34.547-7.857,48.54-13.565c13.99-5.708,27.412-13.895,40.259-24.551c12.847-10.663,22.884-23.318,30.121-37.976 c11.604-23.603,17.412-55.107,17.412-94.507C475.078,215.082,462.135,177.206,436.244,146.752z M401.995,354.455 c-6.092,12.471-13.802,22.265-23.127,29.41c-9.329,7.139-20.938,12.847-34.831,17.135c-13.9,4.281-27.217,7.087-39.971,8.415 c-12.758,1.334-26.933,1.998-42.545,1.998h-47.966c-15.607,0-29.79-0.664-42.541-1.998c-12.752-1.328-26.075-4.134-39.971-8.415 c-13.891-4.288-25.5-9.996-34.829-17.135c-9.329-7.146-17.037-16.939-23.128-29.41c-6.09-12.471-9.136-27.076-9.136-43.824 c0-22.847,6.567-42.264,19.702-58.245c13.134-15.99,30.929-23.982,53.387-23.982c8.188,0,26.746,1.997,55.677,5.995 c13.513,2.093,28.456,3.14,44.823,3.14c16.372,0,31.313-1.044,44.824-3.14c29.317-3.999,47.869-5.995,55.678-5.995 c22.457,0,40.252,7.996,53.386,23.982c13.135,15.988,19.698,35.398,19.698,58.245 C411.125,327.382,408.079,341.995,401.995,354.455z"/><path d="M166.875,265.52c-5.806-6.475-12.703-9.712-20.699-9.712c-7.998,0-14.896,3.241-20.701,9.712 c-5.802,6.468-9.897,13.703-12.275,21.689c-2.383,8.002-3.571,15.804-3.571,23.422c0,7.61,1.191,15.413,3.571,23.414 c2.375,7.991,6.468,15.222,12.275,21.689c5.808,6.475,12.703,9.713,20.701,9.713c7.996,0,14.896-3.244,20.699-9.713 c5.804-6.468,9.897-13.698,12.275-21.689c2.38-8.001,3.571-15.804,3.571-23.414c0-7.611-1.188-15.42-3.571-23.422 C176.771,279.226,172.682,271.994,166.875,265.52z"/><path d="M349.601,265.52c-5.804-6.475-12.703-9.712-20.697-9.712c-7.991,0-14.894,3.241-20.701,9.712 c-5.804,6.468-9.896,13.703-12.271,21.689c-2.385,8.002-3.576,15.804-3.576,23.422c0,7.61,1.191,15.413,3.576,23.414 c2.375,7.991,6.468,15.222,12.271,21.689c5.808,6.475,12.71,9.713,20.701,9.713c7.994,0,14.894-3.244,20.697-9.713 c5.801-6.468,9.896-13.698,12.278-21.689c2.379-8.001,3.569-15.804,3.569-23.414c0-7.611-1.19-15.42-3.569-23.422 C359.498,279.226,355.402,271.994,349.601,265.52z"/></symbol><symbol id="note" viewBox="0 0 511.626 511.626"><title>note</title><path d="M49.106,178.729c6.472,4.567,25.981,18.131,58.528,40.685c32.548,22.554,57.482,39.92,74.803,52.099 c1.903,1.335,5.946,4.237,12.131,8.71c6.186,4.476,11.326,8.093,15.416,10.852c4.093,2.758,9.041,5.852,14.849,9.277 c5.806,3.422,11.279,5.996,16.418,7.7c5.14,1.718,9.898,2.569,14.275,2.569h0.287h0.288c4.377,0,9.137-0.852,14.277-2.569 c5.137-1.704,10.615-4.281,16.416-7.7c5.804-3.429,10.752-6.52,14.845-9.277c4.093-2.759,9.229-6.376,15.417-10.852 c6.184-4.477,10.232-7.375,12.135-8.71c17.508-12.179,62.051-43.11,133.615-92.79c13.894-9.703,25.502-21.411,34.827-35.116 c9.332-13.699,13.993-28.07,13.993-43.105c0-12.564-4.523-23.319-13.565-32.264c-9.041-8.947-19.749-13.418-32.117-13.418H45.679 c-14.655,0-25.933,4.948-33.832,14.844C3.949,79.562,0,91.934,0,106.779c0,11.991,5.236,24.985,15.703,38.974 C26.169,159.743,37.307,170.736,49.106,178.729z"/><path d="M483.072,209.275c-62.424,42.251-109.824,75.087-142.177,98.501c-10.849,7.991-19.65,14.229-26.409,18.699 c-6.759,4.473-15.748,9.041-26.98,13.702c-11.228,4.668-21.692,6.995-31.401,6.995h-0.291h-0.287 c-9.707,0-20.177-2.327-31.405-6.995c-11.228-4.661-20.223-9.229-26.98-13.702c-6.755-4.47-15.559-10.708-26.407-18.699 c-25.697-18.842-72.995-51.68-141.896-98.501C17.987,202.047,8.375,193.762,0,184.437v226.685c0,12.57,4.471,23.319,13.418,32.265 c8.945,8.949,19.701,13.422,32.264,13.422h420.266c12.56,0,23.315-4.473,32.261-13.422c8.949-8.949,13.418-19.694,13.418-32.265 V184.437C503.441,193.569,493.927,201.854,483.072,209.275z"/></symbol></svg>